HIERARCHY
ROOT Hips
{
	OFFSET -0.001795 -0.223333 0.028219
	CHANNELS 6 Xposition Yposition Zposition Zrotation Yrotation Xrotation
	JOINT LeftUpLeg
	{
		OFFSET 0.069520 -0.091406 -0.006815
		CHANNELS 3 Zrotation Yrotation Xrotation
		JOINT LeftLeg
		{
			OFFSET 0.034277 -0.375199 -0.004496
			CHANNELS 3 Zrotation Yrotation Xrotation
			JOINT LeftFoot
			{
				OFFSET -0.013596 -0.397961 -0.043693
				CHANNELS 3 Zrotation Yrotation Xrotation
				JOINT LeftToe
				{
					OFFSET 0.026358 -0.055791 0.119288
					CHANNELS 3 Zrotation Yrotation Xrotation
					End Site
					{
						OFFSET 0.000000 0.000000 0.000000
					}
				}
			}
		}
	}
	JOINT RightUpLeg
	{
		OFFSET -0.067670 -0.090522 -0.004320
		CHANNELS 3 Zrotation Yrotation Xrotation
		JOINT RightLeg
		{
			OFFSET -0.038290 -0.382569 -0.008850
			CHANNELS 3 Zrotation Yrotation Xrotation
			JOINT RightFoot
			{
				OFFSET 0.015774 -0.398415 -0.042312
				CHANNELS 3 Zrotation Yrotation Xrotation
				JOINT RightToe
				{
					OFFSET -0.025372 -0.048144 0.123348
					CHANNELS 3 Zrotation Yrotation Xrotation
					End Site
					{
						OFFSET 0.000000 0.000000 0.000000
					}
				}
			}
		}
	}
	JOINT Spine
	{
		OFFSET -0.002533 0.108963 -0.026696
		CHANNELS 3 Zrotation Yrotation Xrotation
		JOINT Spine1
		{
			OFFSET 0.005487 0.135180 0.001092
			CHANNELS 3 Zrotation Yrotation Xrotation
			JOINT Spine2
			{
				OFFSET 0.001457 0.052922 0.025425
				CHANNELS 3 Zrotation Yrotation Xrotation
				JOINT Neck
				{
					OFFSET -0.002778 0.213870 -0.042857
					CHANNELS 3 Zrotation Yrotation Xrotation
					JOINT Head
					{
						OFFSET 0.005152 0.064970 0.051349
						CHANNELS 3 Zrotation Yrotation Xrotation
						End Site
						{
							OFFSET 0.000000 0.000000 0.000000
						}
					}
				}
				JOINT LeftShoulder
				{
					OFFSET 0.078845 0.121749 -0.034090
					CHANNELS 3 Zrotation Yrotation Xrotation
					JOINT LeftArm
					{
						OFFSET 0.090977 0.030469 -0.008868
						CHANNELS 3 Zrotation Yrotation Xrotation
						JOINT LeftForeArm
						{
							OFFSET 0.259612 -0.012772 -0.027456
							CHANNELS 3 Zrotation Yrotation Xrotation
							JOINT LeftHand
							{
								OFFSET 0.249234 0.008986 -0.001171
								CHANNELS 3 Zrotation Yrotation Xrotation
								End Site
								{
									OFFSET 0.000000 0.000000 0.000000
								}
							}
						}
					}
				}
				JOINT RightShoulder
				{
					OFFSET -0.081759 0.118833 -0.038615
					CHANNELS 3 Zrotation Yrotation Xrotation
					JOINT RightArm
					{
						OFFSET -0.096012 0.032551 -0.009143
						CHANNELS 3 Zrotation Yrotation Xrotation
						JOINT RightForeArm
						{
							OFFSET -0.253742 -0.013329 -0.021401
							CHANNELS 3 Zrotation Yrotation Xrotation
							JOINT RightHand
							{
								OFFSET -0.255298 0.007772 -0.005559
								CHANNELS 3 Zrotation Yrotation Xrotation
								End Site
								{
									OFFSET 0.000000 0.000000 0.000000
								}
							}
						}
					}
				}
			}
		}
	}
}
MOTION
Frames: 10
Frame Time: 0.050000
0.259072 0.699103 1.759227 -7.932300 22.724385 -19.008714 30.172328 0.766410 -41.824878 -34.847145 13.010638 59.817662 7.778525 13.230883 -18.130757 0.000000 0.000000 0.000000 -21.531875 -8.448896 -33.501469 11.221212 -14.394491 63.595792 -5.286531 -10.270810 -12.061979 0.000000 0.000000 0.000000 -9.923928 -1.970131 36.719836 12.434569 -2.207181 -26.130624 7.765065 13.924336 25.796194 1.168642 2.595917 -7.338304 0.000000 0.000000 0.000000 -24.333004 -3.349507 -7.929008 -47.897524 1.858749 -6.301252 -108.426498 -70.330237 84.578768 0.000000 0.000000 0.000000 15.074857 14.213710 10.950508 41.371953 17.820969 -1.234414 -102.105181 66.526226 -60.832239 0.000000 0.000000 0.000000
0.259125 0.662105 1.801834 -8.911472 26.431307 -20.089706 32.710291 0.300523 -45.547840 -38.120339 16.280601 66.776843 7.544519 12.711402 -23.781242 0.000000 0.000000 0.000000 -22.451038 -10.158430 -34.202217 6.323868 -14.577405 75.241294 -5.423017 -7.224909 -19.685493 0.000000 0.000000 0.000000 -11.246484 -2.803577 41.258292 11.185670 -1.543182 -29.228413 10.912487 16.536839 29.286749 3.313064 2.419759 -10.639183 0.000000 0.000000 0.000000 -23.741160 -2.630511 -9.369755 -49.052857 8.623497 -9.329193 -89.568711 -65.695769 60.616503 0.000000 0.000000 0.000000 17.857302 11.865643 11.550329 46.735116 18.067929 -1.214838 -90.825939 72.933581 -56.333852 0.000000 0.000000 0.000000
0.260289 0.647699 1.842613 -8.243162 28.789179 -19.340366 33.908465 -0.124983 -45.058232 -40.317867 17.579294 68.054320 7.464664 11.803075 -29.348833 0.000000 0.000000 0.000000 -22.800903 -11.200645 -34.909881 2.398281 -13.158485 82.364363 -5.835594 -6.452996 -22.515237 0.000000 0.000000 0.000000 -11.608494 -2.985936 40.999159 10.087022 -1.184565 -29.264279 10.370267 18.750666 29.276138 4.821955 1.707939 -11.078682 0.000000 0.000000 0.000000 -21.844840 -1.137842 -10.477029 -47.878566 14.696541 -11.485292 -82.163979 -60.960869 48.769729 0.000000 0.000000 0.000000 19.248937 11.538905 12.770619 51.077283 18.764375 -0.574572 -98.393790 71.690457 -60.221680 0.000000 0.000000 0.000000
0.262638 0.652902 1.881094 -8.387356 31.304368 -19.228405 32.618744 -1.033732 -44.214358 -38.162410 15.482181 70.996921 7.331049 10.091990 -31.753074 0.000000 0.000000 0.000000 -23.783963 -12.190807 -34.175355 0.978083 -13.112427 84.137546 -5.108286 -6.352763 -16.634784 0.000000 0.000000 0.000000 -10.994762 -3.433038 40.367700 8.328517 -0.640000 -31.234616 11.796299 18.409723 31.552008 5.035169 1.870784 -11.286073 0.000000 0.000000 0.000000 -20.737766 0.177731 -11.067913 -46.479723 19.123403 -13.115136 -80.895455 -57.554815 44.549182 0.000000 0.000000 0.000000 15.215127 11.929537 11.321339 53.441212 19.669117 1.116583 -109.842131 64.092944 -60.469431 0.000000 0.000000 0.000000
0.264685 0.669094 1.913824 -8.104736 32.398375 -17.654107 31.262169 -1.459151 -42.229842 -35.396617 12.489948 70.948825 7.576509 8.853650 -33.312258 0.000000 0.000000 0.000000 -24.016086 -12.347846 -33.717871 1.121347 -13.140013 81.119589 -4.099891 -7.128900 -7.841968 0.000000 0.000000 0.000000 -9.829897 -3.621496 39.187670 6.493690 -0.175383 -33.474038 12.842588 18.997104 31.988225 6.838284 -0.101871 -9.233065 0.000000 0.000000 0.000000 -20.814735 1.765939 -12.464877 -41.341787 21.578869 -12.106298 -83.136031 -56.182627 44.789177 0.000000 0.000000 0.000000 12.705907 10.922260 9.917192 49.096727 19.751154 1.006968 -112.190219 52.042279 -47.014235 0.000000 0.000000 0.000000
0.264572 0.682841 1.938746 -7.328090 33.098515 -16.205721 30.366591 -1.662465 -41.059366 -33.705692 10.743113 70.547266 7.561619 7.902259 -32.398130 0.000000 0.000000 0.000000 -24.720712 -13.264212 -34.827735 1.235737 -12.491767 79.183508 -1.890753 -7.108148 8.572920 0.000000 0.000000 0.000000 -8.233278 -3.702086 37.372518 4.920226 0.241556 -31.679314 10.833467 20.259293 29.801534 8.345886 -3.225659 -5.220384 0.000000 0.000000 0.000000 -20.893597 1.687301 -12.885515 -37.623203 21.080076 -10.435280 -92.123638 -57.283909 52.651340 0.000000 0.000000 0.000000 11.440134 11.931881 10.157919 41.203254 19.582438 0.288930 -108.516506 39.114509 -29.395449 0.000000 0.000000 0.000000
0.262407 0.697663 1.956642 -6.406433 33.237862 -14.480975 29.534316 -1.765007 -39.984207 -31.963484 9.131017 69.568666 7.497379 6.852011 -31.114978 0.000000 0.000000 0.000000 -24.351139 -13.067828 -35.070393 1.045077 -11.736181 76.416133 -0.396379 -6.984796 19.190848 0.000000 0.000000 0.000000 -7.985762 -3.847251 37.930901 3.394063 0.441020 -33.987293 11.999772 21.394431 30.611882 10.101832 -4.545287 -5.660894 0.000000 0.000000 0.000000 -20.780820 0.513024 -12.757106 -36.231490 19.708763 -9.363157 -94.658348 -58.500734 55.506748 0.000000 0.000000 0.000000 6.494980 13.470591 8.584641 30.682439 18.644790 -0.242330 -99.110864 27.417236 -12.398419 0.000000 0.000000 0.000000
0.259962 0.708973 1.971224 -6.129936 34.091302 -12.296636 29.695630 -1.988403 -40.400671 -30.896756 8.102811 68.237823 7.298648 5.325765 -30.244492 0.000000 0.000000 0.000000 -25.381210 -14.072452 -35.603648 1.939211 -11.976825 73.705849 1.348569 -3.775087 18.103995 0.000000 0.000000 0.000000 -6.536710 -3.958480 36.327568 2.994144 0.564849 -33.584431 9.914184 21.302262 29.398797 9.723306 -4.936819 -4.269353 0.000000 0.000000 0.000000 -21.509217 -0.091526 -13.155885 -34.845791 17.702904 -8.066400 -96.443857 -58.949280 57.504658 0.000000 0.000000 0.000000 3.533105 15.820913 8.381005 19.960093 14.883002 -1.139596 -88.805745 19.800128 -4.113007 0.000000 0.000000 0.000000
0.258454 0.718560 1.986123 -5.665348 34.719786 -11.430176 30.474864 -2.010171 -40.155029 -30.738873 7.778968 67.071062 6.484254 2.544487 -27.635510 0.000000 0.000000 0.000000 -25.917887 -14.175981 -34.759864 1.816912 -11.424454 70.891529 -1.437275 -4.889413 5.269000 0.000000 0.000000 0.000000 -6.675145 -3.980503 36.404611 3.415668 0.491487 -34.053673 9.295733 21.514071 29.333147 10.201623 -6.107685 -3.026456 0.000000 0.000000 0.000000 -21.470272 -0.848234 -12.904286 -35.838659 16.100662 -7.837757 -99.071374 -57.217979 57.504396 0.000000 0.000000 0.000000 1.807015 16.083900 7.688813 12.633508 13.256196 -1.262921 -83.267020 15.305486 -0.191737 0.000000 0.000000 0.000000
0.258168 0.722726 2.003470 -5.617463 35.969244 -11.454290 30.793867 -2.186093 -39.673758 -30.052825 6.806316 66.542961 5.861988 -0.121891 -26.334990 0.000000 0.000000 0.000000 -26.784014 -14.036898 -32.373796 1.042452 -11.123542 69.768165 -2.161884 -4.530955 -1.528414 0.000000 0.000000 0.000000 -5.868800 -3.957521 34.786773 3.571835 0.554121 -32.903167 7.511505 19.932569 27.512940 10.537405 -6.446361 -3.421459 0.000000 0.000000 0.000000 -21.662435 -1.335410 -12.447316 -37.956781 14.213349 -7.807573 -100.072769 -55.524371 56.223450 0.000000 0.000000 0.000000 1.824505 16.405238 7.860316 8.335275 11.214662 -1.177181 -81.773072 12.981995 0.746463 0.000000 0.000000 0.000000
